<svg width="195" height="116" viewBox="0 0 195 116" fill="none" xmlns="http://www.w3.org/2000/svg">
<rect x="0.511719" y="0.968262" width="194.477" height="115.008" fill="#090A15"/>
<path d="M82.8425 38.1094C82.8425 37.7552 82.8738 37.4427 82.9363 37.1719C82.9988 36.8906 83.1185 36.6615 83.2956 36.4844C83.4727 36.3073 83.7175 36.1719 84.03 36.0781C84.3425 35.9844 84.7488 35.9375 85.2488 35.9375H92.0925C92.5717 35.9375 92.9571 35.9844 93.2488 36.0781C93.5404 36.1615 93.7696 36.2917 93.9363 36.4688C94.1029 36.6458 94.2123 36.8698 94.2644 37.1406C94.3269 37.4115 94.3581 37.7292 94.3581 38.0938V59.3906C94.3581 59.7448 94.3269 60.0573 94.2644 60.3281C94.2019 60.5885 94.0873 60.8125 93.9206 61C93.754 61.1771 93.5196 61.3125 93.2175 61.4062C92.9258 61.4896 92.5404 61.5312 92.0613 61.5312H85.2488C84.7488 61.5312 84.3425 61.4844 84.03 61.3906C83.7175 61.2969 83.4727 61.1615 83.2956 60.9844C83.1185 60.8073 82.9988 60.5833 82.9363 60.3125C82.8738 60.0417 82.8425 59.724 82.8425 59.3594V38.1094ZM107.484 57.7188C107.484 58.3125 107.578 58.75 107.766 59.0312C107.964 59.3125 108.297 59.4531 108.766 59.4531C109.005 59.4531 109.255 59.401 109.516 59.2969C109.786 59.1927 109.995 59.0938 110.141 59V46.2656C110.141 46.0885 110.177 45.9219 110.25 45.7656C110.333 45.6094 110.51 45.5312 110.781 45.5312H111.781C111.875 45.5312 111.969 45.5365 112.063 45.5469C112.156 45.5573 112.234 45.5885 112.297 45.6406C112.37 45.6823 112.427 45.7552 112.469 45.8594C112.521 45.9531 112.547 46.0885 112.547 46.2656V60.7969C112.547 60.974 112.521 61.1146 112.469 61.2188C112.427 61.3125 112.37 61.3854 112.297 61.4375C112.234 61.4792 112.156 61.5052 112.063 61.5156C111.969 61.526 111.875 61.5312 111.781 61.5312H110.781C110.51 61.5312 110.333 61.4531 110.25 61.2969C110.177 61.1406 110.141 60.8906 110.141 60.5469C109.911 60.6302 109.589 60.7448 109.172 60.8906C108.766 61.0365 108.25 61.1823 107.625 61.3281C107 61.4635 106.26 61.5833 105.406 61.6875C104.563 61.7917 103.594 61.8438 102.5 61.8438C101.375 61.8438 100.401 61.75 99.5781 61.5625C98.7656 61.375 98.0885 61.0729 97.5469 60.6562C97.0156 60.2292 96.6198 59.6771 96.3594 59C96.099 58.3229 95.9688 57.4896 95.9688 56.5V47.7031C95.9688 47.349 96 47.0365 96.0625 46.7656C96.125 46.4844 96.2448 46.2552 96.4219 46.0781C96.599 45.901 96.8438 45.7656 97.1563 45.6719C97.4688 45.5781 97.875 45.5312 98.375 45.5312H105.219C105.823 45.5312 106.281 45.6198 106.594 45.7969C106.906 45.974 107.13 46.1927 107.266 46.4531C107.401 46.7135 107.469 46.9948 107.469 47.2969C107.479 47.599 107.484 47.875 107.484 48.125V57.7188ZM128.314 58.9375C128.595 58.9375 128.85 58.901 129.079 58.8281C129.309 58.7448 129.512 58.6562 129.689 58.5625C129.876 58.4688 130.027 58.3854 130.142 58.3125C130.267 58.2292 130.361 58.1875 130.423 58.1875C130.517 58.1875 130.579 58.2031 130.611 58.2344C130.652 58.2656 130.699 58.3229 130.751 58.4062L131.298 59.25C131.35 59.3333 131.376 59.4062 131.376 59.4688C131.376 59.5417 131.355 59.599 131.314 59.6406C131.272 59.6823 131.23 59.7188 131.189 59.75C130.845 59.9896 130.423 60.25 129.923 60.5312C129.423 60.8021 128.84 61.0521 128.173 61.2812C127.517 61.5104 126.772 61.6979 125.939 61.8438C125.105 62 124.189 62.0781 123.189 62.0781C122.408 62.0781 121.626 62.0156 120.845 61.8906C120.064 61.7656 119.314 61.5677 118.595 61.2969C117.887 61.026 117.225 60.6719 116.611 60.2344C115.996 59.7969 115.46 59.2604 115.001 58.625C114.553 57.9896 114.199 57.2552 113.939 56.4219C113.678 55.5781 113.548 54.6146 113.548 53.5312C113.548 52.4688 113.678 51.5208 113.939 50.6875C114.199 49.8438 114.553 49.1042 115.001 48.4688C115.46 47.8333 115.996 47.2969 116.611 46.8594C117.225 46.4115 117.887 46.0521 118.595 45.7812C119.314 45.5 120.064 45.2969 120.845 45.1719C121.626 45.0469 122.408 44.9844 123.189 44.9844C124.491 44.9844 125.699 45.1302 126.814 45.4219C127.939 45.7135 128.913 46.1927 129.736 46.8594C130.559 47.526 131.204 48.401 131.673 49.4844C132.142 50.5677 132.376 51.8958 132.376 53.4688V54.3438C132.376 54.5312 132.329 54.6771 132.236 54.7812C132.142 54.8854 131.986 54.9375 131.767 54.9375H125.298C125.381 55.7083 125.527 56.3542 125.736 56.875C125.954 57.3854 126.199 57.7969 126.47 58.1094C126.751 58.4115 127.053 58.625 127.376 58.75C127.699 58.875 128.012 58.9375 128.314 58.9375ZM130.158 53.0156C130.158 52.1823 130.09 51.4948 129.954 50.9531C129.829 50.401 129.658 49.9635 129.439 49.6406C129.22 49.3073 128.96 49.0729 128.658 48.9375C128.366 48.8021 128.059 48.7344 127.736 48.7344C127.496 48.7344 127.236 48.7812 126.954 48.875C126.673 48.9688 126.408 49.1667 126.158 49.4688C125.918 49.7708 125.71 50.2031 125.533 50.7656C125.366 51.3281 125.267 52.0781 125.236 53.0156H130.158Z" fill="#4465CF"/>
<path d="M95.8893 75.9917L98.0455 67.7573C98.0872 67.5698 98.1289 67.3979 98.1705 67.2417C98.2122 67.0854 98.2643 66.95 98.3268 66.8354C98.3997 66.7209 98.4883 66.6323 98.5924 66.5698C98.707 66.5073 98.858 66.4761 99.0455 66.4761H100.624C100.78 66.4761 100.905 66.5073 100.999 66.5698C101.092 66.6323 101.139 66.7365 101.139 66.8823C101.139 67.0802 101.087 67.3407 100.983 67.6636L94.4518 87.4448C94.2955 87.924 94.108 88.2886 93.8893 88.5386C93.681 88.7886 93.3528 88.9136 92.9049 88.9136H90.733C90.4935 88.9136 90.2955 88.8667 90.1393 88.7729C89.983 88.6792 89.8476 88.5646 89.733 88.4292C89.6289 88.2834 89.5403 88.1271 89.4674 87.9604C89.4049 87.7938 89.3476 87.6323 89.2955 87.4761L82.1237 68.3042C82.0195 68.0334 81.9674 67.7886 81.9674 67.5698C81.9674 67.2052 82.082 66.9344 82.3112 66.7573C82.5403 66.5698 82.7799 66.4761 83.0299 66.4761H91.8893C92.1497 66.4761 92.3685 66.5073 92.5455 66.5698C92.733 66.6219 92.8893 66.7052 93.0143 66.8198C93.1393 66.924 93.2435 67.0542 93.3268 67.2104C93.4101 67.3563 93.4778 67.5177 93.5299 67.6948L95.8893 75.9917ZM101.445 80.271C101.445 80.0496 101.464 79.8543 101.503 79.6851C101.542 79.5093 101.617 79.366 101.728 79.2554C101.838 79.1447 101.991 79.0601 102.187 79.0015C102.382 78.9429 102.636 78.9136 102.949 78.9136H107.226C107.525 78.9136 107.766 78.9429 107.949 79.0015C108.137 79.0535 108.284 79.1349 108.388 79.2456C108.492 79.3563 108.56 79.4963 108.593 79.6655C108.626 79.8348 108.642 80.0366 108.642 80.271V87.5757C108.642 87.797 108.626 87.9924 108.593 88.1616C108.56 88.3244 108.492 88.4644 108.388 88.5815C108.284 88.6922 108.137 88.7769 107.949 88.8354C107.766 88.8875 107.525 88.9136 107.226 88.9136H102.949C102.636 88.9136 102.382 88.8843 102.187 88.8257C101.991 88.7671 101.838 88.6825 101.728 88.5718C101.617 88.4611 101.542 88.3211 101.503 88.1519C101.464 87.9826 101.445 87.784 101.445 87.5562V80.271ZM101.806 74.7339C101.806 74.2847 101.891 73.8615 102.06 73.4644C102.236 73.0672 102.47 72.7222 102.763 72.4292C103.056 72.1362 103.401 71.9051 103.798 71.7358C104.195 71.5601 104.618 71.4722 105.068 71.4722C105.51 71.4722 105.927 71.5601 106.318 71.7358C106.715 71.9051 107.06 72.1362 107.353 72.4292C107.646 72.7222 107.877 73.0672 108.046 73.4644C108.222 73.8615 108.31 74.2847 108.31 74.7339C108.31 75.1766 108.222 75.5965 108.046 75.9937C107.877 76.3843 107.646 76.7261 107.353 77.019C107.06 77.312 106.715 77.5464 106.318 77.7222C105.927 77.8914 105.51 77.9761 105.068 77.9761C104.618 77.9761 104.195 77.8914 103.798 77.7222C103.401 77.5464 103.056 77.312 102.763 77.019C102.47 76.7261 102.236 76.3843 102.06 75.9937C101.891 75.5965 101.806 75.1766 101.806 74.7339ZM124.344 86.3198C124.625 86.3198 124.88 86.2834 125.109 86.2104C125.339 86.1271 125.542 86.0386 125.719 85.9448C125.906 85.8511 126.057 85.7677 126.172 85.6948C126.297 85.6115 126.391 85.5698 126.453 85.5698C126.547 85.5698 126.609 85.5854 126.641 85.6167C126.682 85.6479 126.729 85.7052 126.781 85.7886L127.328 86.6323C127.38 86.7157 127.406 86.7886 127.406 86.8511C127.406 86.924 127.385 86.9813 127.344 87.0229C127.302 87.0646 127.26 87.1011 127.219 87.1323C126.875 87.3719 126.453 87.6323 125.953 87.9136C125.453 88.1844 124.87 88.4344 124.203 88.6636C123.547 88.8927 122.802 89.0802 121.969 89.2261C121.135 89.3823 120.219 89.4604 119.219 89.4604C118.438 89.4604 117.656 89.3979 116.875 89.2729C116.094 89.1479 115.344 88.95 114.625 88.6792C113.917 88.4084 113.255 88.0542 112.641 87.6167C112.026 87.1792 111.49 86.6427 111.031 86.0073C110.583 85.3719 110.229 84.6375 109.969 83.8042C109.708 82.9604 109.578 81.9969 109.578 80.9136C109.578 79.8511 109.708 78.9032 109.969 78.0698C110.229 77.2261 110.583 76.4865 111.031 75.8511C111.49 75.2157 112.026 74.6792 112.641 74.2417C113.255 73.7938 113.917 73.4344 114.625 73.1636C115.344 72.8823 116.094 72.6792 116.875 72.5542C117.656 72.4292 118.438 72.3667 119.219 72.3667C120.521 72.3667 121.729 72.5125 122.844 72.8042C123.969 73.0959 124.943 73.575 125.766 74.2417C126.589 74.9084 127.234 75.7834 127.703 76.8667C128.172 77.95 128.406 79.2782 128.406 80.8511V81.7261C128.406 81.9136 128.359 82.0594 128.266 82.1636C128.172 82.2677 128.016 82.3198 127.797 82.3198H121.328C121.412 83.0907 121.557 83.7365 121.766 84.2573C121.984 84.7677 122.229 85.1792 122.5 85.4917C122.781 85.7938 123.083 86.0073 123.406 86.1323C123.729 86.2573 124.042 86.3198 124.344 86.3198ZM126.188 80.3979C126.188 79.5646 126.12 78.8771 125.984 78.3354C125.859 77.7834 125.688 77.3459 125.469 77.0229C125.25 76.6896 124.99 76.4552 124.688 76.3198C124.396 76.1844 124.089 76.1167 123.766 76.1167C123.526 76.1167 123.266 76.1636 122.984 76.2573C122.703 76.3511 122.438 76.549 122.188 76.8511C121.948 77.1532 121.74 77.5854 121.563 78.1479C121.396 78.7104 121.297 79.4604 121.266 80.3979H126.188ZM149.798 80.5542L152.033 73.8042C152.074 73.6792 152.116 73.5646 152.158 73.4604C152.199 73.3459 152.257 73.2521 152.329 73.1792C152.402 73.0959 152.501 73.0334 152.626 72.9917C152.751 72.9396 152.918 72.9136 153.126 72.9136H154.814C155.022 72.9136 155.168 72.95 155.251 73.0229C155.335 73.0959 155.376 73.1896 155.376 73.3042C155.376 73.4188 155.34 73.5646 155.267 73.7417L149.564 87.4448C149.366 87.924 149.152 88.2886 148.923 88.5386C148.694 88.7886 148.387 88.9136 148.001 88.9136H145.501C145.272 88.9136 145.069 88.8667 144.892 88.7729C144.725 88.6792 144.579 88.5594 144.454 88.4136C144.329 88.2677 144.225 88.1115 144.142 87.9448C144.059 87.7782 143.991 87.6219 143.939 87.4761L141.673 81.4136L139.173 87.4448C138.975 87.924 138.762 88.2886 138.533 88.5386C138.303 88.7886 137.991 88.9136 137.595 88.9136H135.111C134.871 88.9136 134.668 88.8667 134.501 88.7729C134.335 88.6792 134.189 88.5594 134.064 88.4136C133.939 88.2677 133.835 88.1115 133.751 87.9448C133.668 87.7782 133.595 87.6219 133.533 87.4761L128.251 74.1948C128.168 73.9969 128.126 73.8146 128.126 73.6479C128.126 73.3771 128.215 73.1896 128.392 73.0854C128.569 72.9709 128.757 72.9136 128.954 72.9136H135.142C135.402 72.9136 135.621 72.9292 135.798 72.9604C135.986 72.9917 136.142 73.0438 136.267 73.1167C136.402 73.1896 136.512 73.2886 136.595 73.4136C136.678 73.5282 136.757 73.6792 136.829 73.8667L139.392 80.5542L140.314 77.7573L138.986 74.1948C138.902 73.9657 138.861 73.7782 138.861 73.6323C138.861 73.3615 138.944 73.174 139.111 73.0698C139.288 72.9657 139.48 72.9136 139.689 72.9136H145.861C146.382 72.9136 146.762 72.9813 147.001 73.1167C147.241 73.2417 147.423 73.4917 147.548 73.8667L149.798 80.5542Z" fill="#7A33FF"/>
<path d="M43.0625 33.5312C43.0625 32.8021 43.125 32.1667 43.25 31.625C43.375 31.0833 43.6146 30.6354 43.9688 30.2812C44.3229 29.9062 44.8125 29.625 45.4375 29.4375C46.0625 29.25 46.875 29.1562 47.875 29.1562H61.8125C64.0833 29.1562 66.2708 29.4271 68.375 29.9688C70.4792 30.5104 72.3438 31.3854 73.9688 32.5938C75.5938 33.8021 76.8958 35.375 77.875 37.3125C78.8542 39.2292 79.3438 41.5729 79.3438 44.3438C79.3438 48.2188 78.7188 51.3646 77.4688 53.7812C76.2396 56.1979 74.5208 57.9062 72.3125 58.9062C73.8542 59.4062 75.0104 60.1979 75.7812 61.2812C76.5521 62.3438 76.9375 63.625 76.9375 65.125C76.9375 67.0625 76.4896 68.6146 75.5938 69.7812C74.7188 70.9479 73.5729 71.8542 72.1562 72.5C70.7396 73.125 69.1458 73.5417 67.375 73.75C65.625 73.9375 63.875 74.0312 62.125 74.0312H47.875C46.875 74.0312 46.0625 73.9375 45.4375 73.75C44.8125 73.5625 44.3229 73.2917 43.9688 72.9375C43.6146 72.5833 43.375 72.1354 43.25 71.5938C43.125 71.0521 43.0625 70.4167 43.0625 69.6875V33.5312ZM74.9375 44.8438C74.9375 43.3438 74.7708 41.9688 74.4375 40.7188C74.1042 39.4479 73.5938 38.3333 72.9062 37.375C72.2188 36.4167 71.3333 35.625 70.25 35C69.1667 34.375 67.875 33.9479 66.375 33.7188V56.9688C67.875 56.7604 69.1667 56.3021 70.25 55.5938C71.3333 54.8646 72.2188 53.9583 72.9062 52.875C73.5938 51.7917 74.1042 50.5625 74.4375 49.1875C74.7708 47.8125 74.9375 46.3646 74.9375 44.8438ZM66.375 69.6875C68.5417 69.6042 70.1042 69.1667 71.0625 68.375C72.0208 67.5833 72.5 66.6354 72.5 65.5312C72.5 65.0104 72.3854 64.4896 72.1562 63.9688C71.9479 63.4479 71.5938 62.9896 71.0938 62.5938C70.6146 62.1771 69.9792 61.8333 69.1875 61.5625C68.4167 61.2917 67.4792 61.125 66.375 61.0625V69.6875Z" fill="#4465CF"/>
</svg>
