<svg width="117" height="63" viewBox="0 0 117 63" fill="none" xmlns="http://www.w3.org/2000/svg">
<path d="M43.9109 10.668C43.9109 10.3138 43.9421 10.0013 44.0046 9.73047C44.0671 9.44922 44.1869 9.22005 44.364 9.04297C44.5411 8.86589 44.7859 8.73047 45.0984 8.63672C45.4109 8.54297 45.8171 8.49609 46.3171 8.49609H53.1609C53.64 8.49609 54.0254 8.54297 54.3171 8.63672C54.6088 8.72005 54.8379 8.85026 55.0046 9.02734C55.1713 9.20443 55.2807 9.42839 55.3327 9.69922C55.3952 9.97005 55.4265 10.2878 55.4265 10.6523V31.9492C55.4265 32.3034 55.3952 32.6159 55.3327 32.8867C55.2702 33.1471 55.1557 33.3711 54.989 33.5586C54.8223 33.7357 54.5879 33.8711 54.2859 33.9648C53.9942 34.0482 53.6088 34.0898 53.1296 34.0898H46.3171C45.8171 34.0898 45.4109 34.043 45.0984 33.9492C44.7859 33.8555 44.5411 33.7201 44.364 33.543C44.1869 33.3659 44.0671 33.1419 44.0046 32.8711C43.9421 32.6003 43.9109 32.2826 43.9109 31.918V10.668ZM68.5527 30.2773C68.5527 30.8711 68.6465 31.3086 68.834 31.5898C69.0319 31.8711 69.3652 32.0117 69.834 32.0117C70.0736 32.0117 70.3236 31.9596 70.584 31.8555C70.8548 31.7513 71.0632 31.6523 71.209 31.5586V18.8242C71.209 18.6471 71.2454 18.4805 71.3184 18.3242C71.4017 18.168 71.5788 18.0898 71.8496 18.0898H72.8496C72.9434 18.0898 73.0371 18.0951 73.1309 18.1055C73.2246 18.1159 73.3027 18.1471 73.3652 18.1992C73.4382 18.2409 73.4954 18.3138 73.5371 18.418C73.5892 18.5117 73.6152 18.6471 73.6152 18.8242V33.3555C73.6152 33.5326 73.5892 33.6732 73.5371 33.7773C73.4954 33.8711 73.4382 33.944 73.3652 33.9961C73.3027 34.0378 73.2246 34.0638 73.1309 34.0742C73.0371 34.0846 72.9434 34.0898 72.8496 34.0898H71.8496C71.5788 34.0898 71.4017 34.0117 71.3184 33.8555C71.2454 33.6992 71.209 33.4492 71.209 33.1055C70.9798 33.1888 70.6569 33.3034 70.2402 33.4492C69.834 33.5951 69.3184 33.7409 68.6934 33.8867C68.0684 34.0221 67.3288 34.1419 66.4746 34.2461C65.6309 34.3503 64.6621 34.4023 63.5684 34.4023C62.4434 34.4023 61.4694 34.3086 60.6465 34.1211C59.834 33.9336 59.1569 33.6315 58.6152 33.2148C58.084 32.7878 57.6882 32.2357 57.4277 31.5586C57.1673 30.8815 57.0371 30.0482 57.0371 29.0586V20.2617C57.0371 19.9076 57.0684 19.5951 57.1309 19.3242C57.1934 19.043 57.3132 18.8138 57.4902 18.6367C57.6673 18.4596 57.9121 18.3242 58.2246 18.2305C58.5371 18.1367 58.9434 18.0898 59.4434 18.0898H66.2871C66.8913 18.0898 67.3496 18.1784 67.6621 18.3555C67.9746 18.5326 68.1986 18.7513 68.334 19.0117C68.4694 19.2721 68.5371 19.5534 68.5371 19.8555C68.5475 20.1576 68.5527 20.4336 68.5527 20.6836V30.2773ZM89.3821 31.4961C89.6634 31.4961 89.9186 31.4596 90.1477 31.3867C90.3769 31.3034 90.58 31.2148 90.7571 31.1211C90.9446 31.0273 91.0957 30.944 91.2102 30.8711C91.3352 30.7878 91.429 30.7461 91.4915 30.7461C91.5852 30.7461 91.6477 30.7617 91.679 30.793C91.7207 30.8242 91.7675 30.8815 91.8196 30.9648L92.3665 31.8086C92.4186 31.8919 92.4446 31.9648 92.4446 32.0273C92.4446 32.1003 92.4238 32.1576 92.3821 32.1992C92.3404 32.2409 92.2988 32.2773 92.2571 32.3086C91.9134 32.5482 91.4915 32.8086 90.9915 33.0898C90.4915 33.3607 89.9082 33.6107 89.2415 33.8398C88.5852 34.069 87.8404 34.2565 87.0071 34.4023C86.1738 34.5586 85.2571 34.6367 84.2571 34.6367C83.4759 34.6367 82.6946 34.5742 81.9134 34.4492C81.1321 34.3242 80.3821 34.1263 79.6634 33.8555C78.955 33.5846 78.2936 33.2305 77.679 32.793C77.0644 32.3555 76.5279 31.819 76.0696 31.1836C75.6217 30.5482 75.2675 29.8138 75.0071 28.9805C74.7467 28.1367 74.6165 27.1732 74.6165 26.0898C74.6165 25.0273 74.7467 24.0794 75.0071 23.2461C75.2675 22.4023 75.6217 21.6628 76.0696 21.0273C76.5279 20.3919 77.0644 19.8555 77.679 19.418C78.2936 18.9701 78.955 18.6107 79.6634 18.3398C80.3821 18.0586 81.1321 17.8555 81.9134 17.7305C82.6946 17.6055 83.4759 17.543 84.2571 17.543C85.5592 17.543 86.7675 17.6888 87.8821 17.9805C89.0071 18.2721 89.9811 18.7513 90.804 19.418C91.6269 20.0846 92.2727 20.9596 92.7415 22.043C93.2102 23.1263 93.4446 24.4544 93.4446 26.0273V26.9023C93.4446 27.0898 93.3977 27.2357 93.304 27.3398C93.2102 27.444 93.054 27.4961 92.8352 27.4961H86.3665C86.4498 28.2669 86.5957 28.9128 86.804 29.4336C87.0227 29.944 87.2675 30.3555 87.5384 30.668C87.8196 30.9701 88.1217 31.1836 88.4446 31.3086C88.7675 31.4336 89.08 31.4961 89.3821 31.4961ZM91.2259 25.5742C91.2259 24.7409 91.1582 24.0534 91.0227 23.5117C90.8977 22.9596 90.7259 22.5221 90.5071 22.1992C90.2884 21.8659 90.0279 21.6315 89.7259 21.4961C89.4342 21.3607 89.1269 21.293 88.804 21.293C88.5644 21.293 88.304 21.3398 88.0227 21.4336C87.7415 21.5273 87.4759 21.7253 87.2259 22.0273C86.9863 22.3294 86.7779 22.7617 86.6009 23.3242C86.4342 23.8867 86.3352 24.6367 86.304 25.5742H91.2259Z" fill="#F9F9FB"/>
<path d="M56.9577 48.5503L59.1139 40.3159C59.1556 40.1284 59.1972 39.9565 59.2389 39.8003C59.2806 39.644 59.3327 39.5086 59.3952 39.394C59.4681 39.2795 59.5566 39.1909 59.6608 39.1284C59.7754 39.0659 59.9264 39.0347 60.1139 39.0347H61.692C61.8483 39.0347 61.9733 39.0659 62.067 39.1284C62.1608 39.1909 62.2077 39.2951 62.2077 39.4409C62.2077 39.6388 62.1556 39.8993 62.0514 40.2222L55.5202 60.0034C55.3639 60.4826 55.1764 60.8472 54.9577 61.0972C54.7493 61.3472 54.4212 61.4722 53.9733 61.4722H51.8014C51.5618 61.4722 51.3639 61.4253 51.2077 61.3315C51.0514 61.2378 50.916 61.1232 50.8014 60.9878C50.6972 60.842 50.6087 60.6857 50.5358 60.519C50.4733 60.3524 50.416 60.1909 50.3639 60.0347L43.192 40.8628C43.0879 40.592 43.0358 40.3472 43.0358 40.1284C43.0358 39.7638 43.1504 39.493 43.3795 39.3159C43.6087 39.1284 43.8483 39.0347 44.0983 39.0347H52.9577C53.2181 39.0347 53.4368 39.0659 53.6139 39.1284C53.8014 39.1805 53.9577 39.2638 54.0827 39.3784C54.2077 39.4826 54.3118 39.6128 54.3952 39.769C54.4785 39.9149 54.5462 40.0763 54.5983 40.2534L56.9577 48.5503ZM62.513 52.8296C62.513 52.6082 62.5325 52.4129 62.5716 52.2437C62.6106 52.0679 62.6855 51.9246 62.7962 51.814C62.9069 51.7033 63.0598 51.6187 63.2552 51.5601C63.4505 51.5015 63.7044 51.4722 64.0169 51.4722H68.2942C68.5937 51.4722 68.8346 51.5015 69.0169 51.5601C69.2057 51.6121 69.3522 51.6935 69.4563 51.8042C69.5605 51.9149 69.6289 52.0549 69.6614 52.2241C69.694 52.3934 69.7102 52.5952 69.7102 52.8296V60.1343C69.7102 60.3556 69.694 60.5509 69.6614 60.7202C69.6289 60.883 69.5605 61.0229 69.4563 61.1401C69.3522 61.2508 69.2057 61.3354 69.0169 61.394C68.8346 61.4461 68.5937 61.4722 68.2942 61.4722H64.0169C63.7044 61.4722 63.4505 61.4429 63.2552 61.3843C63.0598 61.3257 62.9069 61.241 62.7962 61.1304C62.6855 61.0197 62.6106 60.8797 62.5716 60.7104C62.5325 60.5412 62.513 60.3426 62.513 60.1147V52.8296ZM62.8743 47.2925C62.8743 46.8433 62.9589 46.4201 63.1282 46.0229C63.304 45.6258 63.5384 45.2808 63.8313 44.9878C64.1243 44.6948 64.4694 44.4637 64.8665 44.2944C65.2636 44.1187 65.6868 44.0308 66.136 44.0308C66.5787 44.0308 66.9954 44.1187 67.386 44.2944C67.7832 44.4637 68.1282 44.6948 68.4212 44.9878C68.7141 45.2808 68.9453 45.6258 69.1145 46.0229C69.2903 46.4201 69.3782 46.8433 69.3782 47.2925C69.3782 47.7352 69.2903 48.1551 69.1145 48.5522C68.9453 48.9429 68.7141 49.2847 68.4212 49.5776C68.1282 49.8706 67.7832 50.105 67.386 50.2808C66.9954 50.45 66.5787 50.5347 66.136 50.5347C65.6868 50.5347 65.2636 50.45 64.8665 50.2808C64.4694 50.105 64.1243 49.8706 63.8313 49.5776C63.5384 49.2847 63.304 48.9429 63.1282 48.5522C62.9589 48.1551 62.8743 47.7352 62.8743 47.2925ZM85.4122 58.8784C85.6934 58.8784 85.9486 58.842 86.1778 58.769C86.407 58.6857 86.6101 58.5972 86.7872 58.5034C86.9747 58.4097 87.1257 58.3263 87.2403 58.2534C87.3653 58.1701 87.4591 58.1284 87.5216 58.1284C87.6153 58.1284 87.6778 58.144 87.7091 58.1753C87.7507 58.2065 87.7976 58.2638 87.8497 58.3472L88.3966 59.1909C88.4486 59.2743 88.4747 59.3472 88.4747 59.4097C88.4747 59.4826 88.4539 59.5399 88.4122 59.5815C88.3705 59.6232 88.3289 59.6597 88.2872 59.6909C87.9434 59.9305 87.5216 60.1909 87.0216 60.4722C86.5216 60.743 85.9382 60.993 85.2716 61.2222C84.6153 61.4513 83.8705 61.6388 83.0372 61.7847C82.2039 61.9409 81.2872 62.019 80.2872 62.019C79.5059 62.019 78.7247 61.9565 77.9434 61.8315C77.1622 61.7065 76.4122 61.5086 75.6934 61.2378C74.9851 60.967 74.3236 60.6128 73.7091 60.1753C73.0945 59.7378 72.558 59.2013 72.0997 58.5659C71.6518 57.9305 71.2976 57.1961 71.0372 56.3628C70.7768 55.519 70.6466 54.5555 70.6466 53.4722C70.6466 52.4097 70.7768 51.4618 71.0372 50.6284C71.2976 49.7847 71.6518 49.0451 72.0997 48.4097C72.558 47.7743 73.0945 47.2378 73.7091 46.8003C74.3236 46.3524 74.9851 45.993 75.6934 45.7222C76.4122 45.4409 77.1622 45.2378 77.9434 45.1128C78.7247 44.9878 79.5059 44.9253 80.2872 44.9253C81.5893 44.9253 82.7976 45.0711 83.9122 45.3628C85.0372 45.6545 86.0111 46.1336 86.8341 46.8003C87.657 47.467 88.3028 48.342 88.7716 49.4253C89.2403 50.5086 89.4747 51.8368 89.4747 53.4097V54.2847C89.4747 54.4722 89.4278 54.618 89.3341 54.7222C89.2403 54.8263 89.0841 54.8784 88.8653 54.8784H82.3966C82.4799 55.6493 82.6257 56.2951 82.8341 56.8159C83.0528 57.3263 83.2976 57.7378 83.5684 58.0503C83.8497 58.3524 84.1518 58.5659 84.4747 58.6909C84.7976 58.8159 85.1101 58.8784 85.4122 58.8784ZM87.2559 52.9565C87.2559 52.1232 87.1882 51.4357 87.0528 50.894C86.9278 50.342 86.7559 49.9045 86.5372 49.5815C86.3184 49.2482 86.058 49.0138 85.7559 48.8784C85.4643 48.743 85.157 48.6753 84.8341 48.6753C84.5945 48.6753 84.3341 48.7222 84.0528 48.8159C83.7716 48.9097 83.5059 49.1076 83.2559 49.4097C83.0164 49.7118 82.808 50.144 82.6309 50.7065C82.4643 51.269 82.3653 52.019 82.3341 52.9565H87.2559ZM110.867 53.1128L113.101 46.3628C113.143 46.2378 113.184 46.1232 113.226 46.019C113.268 45.9045 113.325 45.8107 113.398 45.7378C113.471 45.6545 113.57 45.592 113.695 45.5503C113.82 45.4982 113.986 45.4722 114.195 45.4722H115.882C116.091 45.4722 116.236 45.5086 116.32 45.5815C116.403 45.6545 116.445 45.7482 116.445 45.8628C116.445 45.9774 116.408 46.1232 116.335 46.3003L110.632 60.0034C110.434 60.4826 110.221 60.8472 109.992 61.0972C109.762 61.3472 109.455 61.4722 109.07 61.4722H106.57C106.341 61.4722 106.137 61.4253 105.96 61.3315C105.794 61.2378 105.648 61.118 105.523 60.9722C105.398 60.8263 105.294 60.6701 105.21 60.5034C105.127 60.3368 105.059 60.1805 105.007 60.0347L102.742 53.9722L100.242 60.0034C100.044 60.4826 99.8301 60.8472 99.6009 61.0972C99.3718 61.3472 99.0593 61.4722 98.6634 61.4722H96.1791C95.9395 61.4722 95.7364 61.4253 95.5697 61.3315C95.403 61.2378 95.2572 61.118 95.1322 60.9722C95.0072 60.8263 94.903 60.6701 94.8197 60.5034C94.7364 60.3368 94.6634 60.1805 94.6009 60.0347L89.3197 46.7534C89.2364 46.5555 89.1947 46.3732 89.1947 46.2065C89.1947 45.9357 89.2832 45.7482 89.4603 45.644C89.6374 45.5295 89.8249 45.4722 90.0228 45.4722H96.2103C96.4707 45.4722 96.6895 45.4878 96.8666 45.519C97.0541 45.5503 97.2103 45.6024 97.3353 45.6753C97.4707 45.7482 97.5801 45.8472 97.6634 45.9722C97.7468 46.0868 97.8249 46.2378 97.8978 46.4253L100.46 53.1128L101.382 50.3159L100.054 46.7534C99.9707 46.5243 99.9291 46.3368 99.9291 46.1909C99.9291 45.9201 100.012 45.7326 100.179 45.6284C100.356 45.5243 100.549 45.4722 100.757 45.4722H106.929C107.45 45.4722 107.83 45.5399 108.07 45.6753C108.309 45.8003 108.492 46.0503 108.617 46.4253L110.867 53.1128Z" fill="#191970"/>
<path d="M4.13086 6.08984C4.13086 5.36068 4.19336 4.72526 4.31836 4.18359C4.44336 3.64193 4.68294 3.19401 5.03711 2.83984C5.39128 2.46484 5.88086 2.18359 6.50586 1.99609C7.13086 1.80859 7.94336 1.71484 8.94336 1.71484H22.8809C25.1517 1.71484 27.3392 1.98568 29.4434 2.52734C31.5475 3.06901 33.4121 3.94401 35.0371 5.15234C36.6621 6.36068 37.9642 7.93359 38.9434 9.87109C39.9225 11.7878 40.4121 14.1315 40.4121 16.9023C40.4121 20.7773 39.7871 23.9232 38.5371 26.3398C37.3079 28.7565 35.5892 30.4648 33.3809 31.4648C34.9225 31.9648 36.0788 32.7565 36.8496 33.8398C37.6204 34.9023 38.0059 36.1836 38.0059 37.6836C38.0059 39.6211 37.5579 41.1732 36.6621 42.3398C35.7871 43.5065 34.6413 44.4128 33.2246 45.0586C31.8079 45.6836 30.2142 46.1003 28.4434 46.3086C26.6934 46.4961 24.9434 46.5898 23.1934 46.5898H8.94336C7.94336 46.5898 7.13086 46.4961 6.50586 46.3086C5.88086 46.1211 5.39128 45.8503 5.03711 45.4961C4.68294 45.1419 4.44336 44.694 4.31836 44.1523C4.19336 43.6107 4.13086 42.9753 4.13086 42.2461V6.08984ZM36.0059 17.4023C36.0059 15.9023 35.8392 14.5273 35.5059 13.2773C35.1725 12.0065 34.6621 10.8919 33.9746 9.93359C33.2871 8.97526 32.4017 8.18359 31.3184 7.55859C30.235 6.93359 28.9434 6.50651 27.4434 6.27734V29.5273C28.9434 29.319 30.235 28.8607 31.3184 28.1523C32.4017 27.4232 33.2871 26.5169 33.9746 25.4336C34.6621 24.3503 35.1725 23.1211 35.5059 21.7461C35.8392 20.3711 36.0059 18.9232 36.0059 17.4023ZM27.4434 42.2461C29.61 42.1628 31.1725 41.7253 32.1309 40.9336C33.0892 40.1419 33.5684 39.194 33.5684 38.0898C33.5684 37.569 33.4538 37.0482 33.2246 36.5273C33.0163 36.0065 32.6621 35.5482 32.1621 35.1523C31.6829 34.7357 31.0475 34.3919 30.2559 34.1211C29.485 33.8503 28.5475 33.6836 27.4434 33.6211V42.2461Z" fill="#F9F9FB"/>
</svg>
