<svg width="117" height="62" viewBox="0 0 117 62" fill="none" xmlns="http://www.w3.org/2000/svg">
<path d="M43.8425 10.1094C43.8425 9.75521 43.8738 9.44271 43.9363 9.17188C43.9988 8.89062 44.1185 8.66146 44.2956 8.48438C44.4727 8.30729 44.7175 8.17188 45.03 8.07812C45.3425 7.98438 45.7488 7.9375 46.2488 7.9375H53.0925C53.5717 7.9375 53.9571 7.98438 54.2488 8.07812C54.5404 8.16146 54.7696 8.29167 54.9363 8.46875C55.1029 8.64583 55.2123 8.86979 55.2644 9.14062C55.3269 9.41146 55.3581 9.72917 55.3581 10.0938V31.3906C55.3581 31.7448 55.3269 32.0573 55.2644 32.3281C55.2019 32.5885 55.0873 32.8125 54.9206 33C54.754 33.1771 54.5196 33.3125 54.2175 33.4062C53.9258 33.4896 53.5404 33.5312 53.0613 33.5312H46.2488C45.7488 33.5312 45.3425 33.4844 45.03 33.3906C44.7175 33.2969 44.4727 33.1615 44.2956 32.9844C44.1185 32.8073 43.9988 32.5833 43.9363 32.3125C43.8738 32.0417 43.8425 31.724 43.8425 31.3594V10.1094ZM68.4844 29.7188C68.4844 30.3125 68.5781 30.75 68.7656 31.0312C68.9635 31.3125 69.2969 31.4531 69.7656 31.4531C70.0052 31.4531 70.2552 31.401 70.5156 31.2969C70.7865 31.1927 70.9948 31.0938 71.1406 31V18.2656C71.1406 18.0885 71.1771 17.9219 71.25 17.7656C71.3333 17.6094 71.5104 17.5312 71.7813 17.5312H72.7813C72.875 17.5312 72.9688 17.5365 73.0625 17.5469C73.1563 17.5573 73.2344 17.5885 73.2969 17.6406C73.3698 17.6823 73.4271 17.7552 73.4688 17.8594C73.5208 17.9531 73.5469 18.0885 73.5469 18.2656V32.7969C73.5469 32.974 73.5208 33.1146 73.4688 33.2188C73.4271 33.3125 73.3698 33.3854 73.2969 33.4375C73.2344 33.4792 73.1563 33.5052 73.0625 33.5156C72.9688 33.526 72.875 33.5312 72.7813 33.5312H71.7813C71.5104 33.5312 71.3333 33.4531 71.25 33.2969C71.1771 33.1406 71.1406 32.8906 71.1406 32.5469C70.9115 32.6302 70.5885 32.7448 70.1719 32.8906C69.7656 33.0365 69.25 33.1823 68.625 33.3281C68 33.4635 67.2604 33.5833 66.4063 33.6875C65.5625 33.7917 64.5938 33.8438 63.5 33.8438C62.375 33.8438 61.401 33.75 60.5781 33.5625C59.7656 33.375 59.0885 33.0729 58.5469 32.6562C58.0156 32.2292 57.6198 31.6771 57.3594 31C57.099 30.3229 56.9688 29.4896 56.9688 28.5V19.7031C56.9688 19.349 57 19.0365 57.0625 18.7656C57.125 18.4844 57.2448 18.2552 57.4219 18.0781C57.599 17.901 57.8438 17.7656 58.1563 17.6719C58.4688 17.5781 58.875 17.5312 59.375 17.5312H66.2188C66.8229 17.5312 67.2813 17.6198 67.5938 17.7969C67.9063 17.974 68.1302 18.1927 68.2656 18.4531C68.401 18.7135 68.4688 18.9948 68.4688 19.2969C68.4792 19.599 68.4844 19.875 68.4844 20.125V29.7188ZM89.3138 30.9375C89.595 30.9375 89.8502 30.901 90.0794 30.8281C90.3085 30.7448 90.5117 30.6562 90.6888 30.5625C90.8763 30.4688 91.0273 30.3854 91.1419 30.3125C91.2669 30.2292 91.3606 30.1875 91.4231 30.1875C91.5169 30.1875 91.5794 30.2031 91.6106 30.2344C91.6523 30.2656 91.6992 30.3229 91.7513 30.4062L92.2981 31.25C92.3502 31.3333 92.3763 31.4062 92.3763 31.4688C92.3763 31.5417 92.3554 31.599 92.3138 31.6406C92.2721 31.6823 92.2304 31.7188 92.1888 31.75C91.845 31.9896 91.4231 32.25 90.9231 32.5312C90.4231 32.8021 89.8398 33.0521 89.1731 33.2812C88.5169 33.5104 87.7721 33.6979 86.9388 33.8438C86.1054 34 85.1888 34.0781 84.1888 34.0781C83.4075 34.0781 82.6263 34.0156 81.845 33.8906C81.0638 33.7656 80.3138 33.5677 79.595 33.2969C78.8867 33.026 78.2252 32.6719 77.6106 32.2344C76.996 31.7969 76.4596 31.2604 76.0013 30.625C75.5533 29.9896 75.1992 29.2552 74.9388 28.4219C74.6783 27.5781 74.5481 26.6146 74.5481 25.5312C74.5481 24.4688 74.6783 23.5208 74.9388 22.6875C75.1992 21.8438 75.5533 21.1042 76.0013 20.4688C76.4596 19.8333 76.996 19.2969 77.6106 18.8594C78.2252 18.4115 78.8867 18.0521 79.595 17.7812C80.3138 17.5 81.0638 17.2969 81.845 17.1719C82.6263 17.0469 83.4075 16.9844 84.1888 16.9844C85.4908 16.9844 86.6992 17.1302 87.8138 17.4219C88.9388 17.7135 89.9127 18.1927 90.7356 18.8594C91.5585 19.526 92.2044 20.401 92.6731 21.4844C93.1419 22.5677 93.3763 23.8958 93.3763 25.4688V26.3438C93.3763 26.5312 93.3294 26.6771 93.2356 26.7812C93.1419 26.8854 92.9856 26.9375 92.7669 26.9375H86.2981C86.3815 27.7083 86.5273 28.3542 86.7356 28.875C86.9544 29.3854 87.1992 29.7969 87.47 30.1094C87.7513 30.4115 88.0533 30.625 88.3763 30.75C88.6992 30.875 89.0117 30.9375 89.3138 30.9375ZM91.1575 25.0156C91.1575 24.1823 91.0898 23.4948 90.9544 22.9531C90.8294 22.401 90.6575 21.9635 90.4388 21.6406C90.22 21.3073 89.9596 21.0729 89.6575 20.9375C89.3658 20.8021 89.0585 20.7344 88.7356 20.7344C88.496 20.7344 88.2356 20.7812 87.9544 20.875C87.6731 20.9688 87.4075 21.1667 87.1575 21.4688C86.9179 21.7708 86.7096 22.2031 86.5325 22.7656C86.3658 23.3281 86.2669 24.0781 86.2356 25.0156H91.1575Z" fill="#4465CF"/>
<path d="M56.8893 47.9917L59.0455 39.7573C59.0872 39.5698 59.1289 39.3979 59.1705 39.2417C59.2122 39.0854 59.2643 38.95 59.3268 38.8354C59.3997 38.7209 59.4883 38.6323 59.5924 38.5698C59.707 38.5073 59.858 38.4761 60.0455 38.4761H61.6237C61.7799 38.4761 61.9049 38.5073 61.9987 38.5698C62.0924 38.6323 62.1393 38.7365 62.1393 38.8823C62.1393 39.0802 62.0872 39.3407 61.983 39.6636L55.4518 59.4448C55.2955 59.924 55.108 60.2886 54.8893 60.5386C54.681 60.7886 54.3528 60.9136 53.9049 60.9136H51.733C51.4935 60.9136 51.2955 60.8667 51.1393 60.7729C50.983 60.6792 50.8476 60.5646 50.733 60.4292C50.6289 60.2834 50.5403 60.1271 50.4674 59.9604C50.4049 59.7938 50.3476 59.6323 50.2955 59.4761L43.1237 40.3042C43.0195 40.0334 42.9674 39.7886 42.9674 39.5698C42.9674 39.2052 43.082 38.9344 43.3112 38.7573C43.5403 38.5698 43.7799 38.4761 44.0299 38.4761H52.8893C53.1497 38.4761 53.3685 38.5073 53.5455 38.5698C53.733 38.6219 53.8893 38.7052 54.0143 38.8198C54.1393 38.924 54.2435 39.0542 54.3268 39.2104C54.4101 39.3563 54.4778 39.5177 54.5299 39.6948L56.8893 47.9917ZM62.4446 52.271C62.4446 52.0496 62.4641 51.8543 62.5032 51.6851C62.5423 51.5093 62.6171 51.366 62.7278 51.2554C62.8385 51.1447 62.9915 51.0601 63.1868 51.0015C63.3821 50.9429 63.636 50.9136 63.9485 50.9136H68.2259C68.5253 50.9136 68.7662 50.9429 68.9485 51.0015C69.1373 51.0535 69.2838 51.1349 69.388 51.2456C69.4921 51.3563 69.5605 51.4963 69.593 51.6655C69.6256 51.8348 69.6419 52.0366 69.6419 52.271V59.5757C69.6419 59.797 69.6256 59.9924 69.593 60.1616C69.5605 60.3244 69.4921 60.4644 69.388 60.5815C69.2838 60.6922 69.1373 60.7769 68.9485 60.8354C68.7662 60.8875 68.5253 60.9136 68.2259 60.9136H63.9485C63.636 60.9136 63.3821 60.8843 63.1868 60.8257C62.9915 60.7671 62.8385 60.6825 62.7278 60.5718C62.6171 60.4611 62.5423 60.3211 62.5032 60.1519C62.4641 59.9826 62.4446 59.784 62.4446 59.5562V52.271ZM62.8059 46.7339C62.8059 46.2847 62.8906 45.8615 63.0598 45.4644C63.2356 45.0672 63.47 44.7222 63.763 44.4292C64.0559 44.1362 64.401 43.9051 64.7981 43.7358C65.1953 43.5601 65.6184 43.4722 66.0677 43.4722C66.5104 43.4722 66.927 43.5601 67.3177 43.7358C67.7148 43.9051 68.0598 44.1362 68.3528 44.4292C68.6458 44.7222 68.8769 45.0672 69.0462 45.4644C69.222 45.8615 69.3098 46.2847 69.3098 46.7339C69.3098 47.1766 69.222 47.5965 69.0462 47.9937C68.8769 48.3843 68.6458 48.7261 68.3528 49.019C68.0598 49.312 67.7148 49.5464 67.3177 49.7222C66.927 49.8914 66.5104 49.9761 66.0677 49.9761C65.6184 49.9761 65.1953 49.8914 64.7981 49.7222C64.401 49.5464 64.0559 49.312 63.763 49.019C63.47 48.7261 63.2356 48.3843 63.0598 47.9937C62.8906 47.5965 62.8059 47.1766 62.8059 46.7339ZM85.3438 58.3198C85.6251 58.3198 85.8803 58.2834 86.1095 58.2104C86.3386 58.1271 86.5417 58.0386 86.7188 57.9448C86.9063 57.8511 87.0574 57.7677 87.172 57.6948C87.297 57.6115 87.3907 57.5698 87.4532 57.5698C87.547 57.5698 87.6095 57.5854 87.6407 57.6167C87.6824 57.6479 87.7292 57.7052 87.7813 57.7886L88.3282 58.6323C88.3803 58.7157 88.4063 58.7886 88.4063 58.8511C88.4063 58.924 88.3855 58.9813 88.3438 59.0229C88.3022 59.0646 88.2605 59.1011 88.2188 59.1323C87.8751 59.3719 87.4532 59.6323 86.9532 59.9136C86.4532 60.1844 85.8699 60.4344 85.2032 60.6636C84.547 60.8927 83.8022 61.0802 82.9688 61.2261C82.1355 61.3823 81.2188 61.4604 80.2188 61.4604C79.4376 61.4604 78.6563 61.3979 77.8751 61.2729C77.0938 61.1479 76.3438 60.95 75.6251 60.6792C74.9167 60.4084 74.2553 60.0542 73.6407 59.6167C73.0261 59.1792 72.4897 58.6427 72.0313 58.0073C71.5834 57.3719 71.2292 56.6375 70.9688 55.8042C70.7084 54.9604 70.5782 53.9969 70.5782 52.9136C70.5782 51.8511 70.7084 50.9032 70.9688 50.0698C71.2292 49.2261 71.5834 48.4865 72.0313 47.8511C72.4897 47.2157 73.0261 46.6792 73.6407 46.2417C74.2553 45.7938 74.9167 45.4344 75.6251 45.1636C76.3438 44.8823 77.0938 44.6792 77.8751 44.5542C78.6563 44.4292 79.4376 44.3667 80.2188 44.3667C81.5209 44.3667 82.7292 44.5125 83.8438 44.8042C84.9688 45.0959 85.9428 45.575 86.7657 46.2417C87.5886 46.9084 88.2345 47.7834 88.7032 48.8667C89.172 49.95 89.4063 51.2782 89.4063 52.8511V53.7261C89.4063 53.9136 89.3595 54.0594 89.2657 54.1636C89.172 54.2677 89.0157 54.3198 88.797 54.3198H82.3282C82.4115 55.0907 82.5574 55.7365 82.7657 56.2573C82.9845 56.7677 83.2292 57.1792 83.5001 57.4917C83.7813 57.7938 84.0834 58.0073 84.4063 58.1323C84.7292 58.2573 85.0417 58.3198 85.3438 58.3198ZM87.1876 52.3979C87.1876 51.5646 87.1199 50.8771 86.9845 50.3354C86.8595 49.7834 86.6876 49.3459 86.4688 49.0229C86.2501 48.6896 85.9897 48.4552 85.6876 48.3198C85.3959 48.1844 85.0886 48.1167 84.7657 48.1167C84.5261 48.1167 84.2657 48.1636 83.9845 48.2573C83.7032 48.3511 83.4376 48.549 83.1876 48.8511C82.948 49.1532 82.7397 49.5854 82.5626 50.1479C82.3959 50.7104 82.297 51.4604 82.2657 52.3979H87.1876ZM110.798 52.5542L113.033 45.8042C113.074 45.6792 113.116 45.5646 113.158 45.4604C113.199 45.3459 113.257 45.2521 113.329 45.1792C113.402 45.0959 113.501 45.0334 113.626 44.9917C113.751 44.9396 113.918 44.9136 114.126 44.9136H115.814C116.022 44.9136 116.168 44.95 116.251 45.0229C116.335 45.0959 116.376 45.1896 116.376 45.3042C116.376 45.4188 116.34 45.5646 116.267 45.7417L110.564 59.4448C110.366 59.924 110.152 60.2886 109.923 60.5386C109.694 60.7886 109.387 60.9136 109.001 60.9136H106.501C106.272 60.9136 106.069 60.8667 105.892 60.7729C105.725 60.6792 105.579 60.5594 105.454 60.4136C105.329 60.2677 105.225 60.1115 105.142 59.9448C105.059 59.7782 104.991 59.6219 104.939 59.4761L102.673 53.4136L100.173 59.4448C99.9753 59.924 99.7617 60.2886 99.5326 60.5386C99.3034 60.7886 98.9909 60.9136 98.5951 60.9136H96.1107C95.8711 60.9136 95.668 60.8667 95.5013 60.7729C95.3347 60.6792 95.1888 60.5594 95.0638 60.4136C94.9388 60.2677 94.8347 60.1115 94.7513 59.9448C94.668 59.7782 94.5951 59.6219 94.5326 59.4761L89.2513 46.1948C89.168 45.9969 89.1263 45.8146 89.1263 45.6479C89.1263 45.3771 89.2149 45.1896 89.392 45.0854C89.569 44.9709 89.7565 44.9136 89.9545 44.9136H96.142C96.4024 44.9136 96.6211 44.9292 96.7982 44.9604C96.9857 44.9917 97.142 45.0438 97.267 45.1167C97.4024 45.1896 97.5117 45.2886 97.5951 45.4136C97.6784 45.5282 97.7565 45.6792 97.8295 45.8667L100.392 52.5542L101.314 49.7573L99.9857 46.1948C99.9024 45.9657 99.8607 45.7782 99.8607 45.6323C99.8607 45.3615 99.944 45.174 100.111 45.0698C100.288 44.9657 100.48 44.9136 100.689 44.9136H106.861C107.382 44.9136 107.762 44.9813 108.001 45.1167C108.241 45.2417 108.423 45.4917 108.548 45.8667L110.798 52.5542Z" fill="#7A33FF"/>
<path d="M4.0625 5.53125C4.0625 4.80208 4.125 4.16667 4.25 3.625C4.375 3.08333 4.61458 2.63542 4.96875 2.28125C5.32292 1.90625 5.8125 1.625 6.4375 1.4375C7.0625 1.25 7.875 1.15625 8.875 1.15625H22.8125C25.0833 1.15625 27.2708 1.42708 29.375 1.96875C31.4792 2.51042 33.3438 3.38542 34.9688 4.59375C36.5938 5.80208 37.8958 7.375 38.875 9.3125C39.8542 11.2292 40.3438 13.5729 40.3438 16.3438C40.3438 20.2188 39.7188 23.3646 38.4688 25.7812C37.2396 28.1979 35.5208 29.9062 33.3125 30.9062C34.8542 31.4062 36.0104 32.1979 36.7812 33.2812C37.5521 34.3438 37.9375 35.625 37.9375 37.125C37.9375 39.0625 37.4896 40.6146 36.5938 41.7812C35.7188 42.9479 34.5729 43.8542 33.1562 44.5C31.7396 45.125 30.1458 45.5417 28.375 45.75C26.625 45.9375 24.875 46.0312 23.125 46.0312H8.875C7.875 46.0312 7.0625 45.9375 6.4375 45.75C5.8125 45.5625 5.32292 45.2917 4.96875 44.9375C4.61458 44.5833 4.375 44.1354 4.25 43.5938C4.125 43.0521 4.0625 42.4167 4.0625 41.6875V5.53125ZM35.9375 16.8438C35.9375 15.3438 35.7708 13.9688 35.4375 12.7188C35.1042 11.4479 34.5938 10.3333 33.9062 9.375C33.2188 8.41667 32.3333 7.625 31.25 7C30.1667 6.375 28.875 5.94792 27.375 5.71875V28.9688C28.875 28.7604 30.1667 28.3021 31.25 27.5938C32.3333 26.8646 33.2188 25.9583 33.9062 24.875C34.5938 23.7917 35.1042 22.5625 35.4375 21.1875C35.7708 19.8125 35.9375 18.3646 35.9375 16.8438ZM27.375 41.6875C29.5417 41.6042 31.1042 41.1667 32.0625 40.375C33.0208 39.5833 33.5 38.6354 33.5 37.5312C33.5 37.0104 33.3854 36.4896 33.1562 35.9688C32.9479 35.4479 32.5938 34.9896 32.0938 34.5938C31.6146 34.1771 30.9792 33.8333 30.1875 33.5625C29.4167 33.2917 28.4792 33.125 27.375 33.0625V41.6875Z" fill="#4465CF"/>
</svg>
